<?xml version="1.0" standalone="no"?>
<!DOCTYPE svg PUBLIC "-//W3C//DTD SVG 20010904//EN"
 "http://www.w3.org/TR/2001/REC-SVG-20010904/DTD/svg10.dtd">
<svg version="1.0" xmlns="http://www.w3.org/2000/svg"
 width="1080.000000pt" height="1080.000000pt" viewBox="0 0 1080.000000 1080.000000"
 preserveAspectRatio="xMidYMid meet">

<g transform="translate(0.000000,1080.000000) scale(0.100000,-0.100000)"
fill="#000000" stroke="none">
<path d="M4000 8564 c-683 -65 -1241 -326 -1696 -795 -190 -197 -335 -403
-459 -654 -122 -245 -206 -515 -240 -770 -8 -66 -20 -142 -25 -168 -11 -52
-15 -2957 -4 -2957 3 0 193 183 421 408 228 224 417 408 421 409 4 2 48 -31
97 -72 269 -225 635 -417 963 -506 45 -12 82 -25 82 -28 0 -3 -14 -26 -30 -51
l-30 -45 540 -5 540 -5 88 -97 c398 -440 936 -726 1549 -823 140 -23 452 -30
608 -16 549 52 1051 263 1474 619 l64 54 86 -84 c47 -46 201 -194 341 -328
140 -134 294 -282 343 -329 l87 -86 -3 1440 c-3 1466 -4 1485 -42 1730 -55
348 -200 718 -396 1009 -464 690 -1216 1121 -2037 1165 -133 7 -379 0 -463
-14 -35 -6 -38 -4 -101 72 -86 103 -282 291 -389 375 -368 286 -812 473 -1264
533 -118 16 -438 27 -525 19z m514 -414 c310 -48 594 -157 859 -330 876 -570
1237 -1645 879 -2620 -44 -120 -150 -341 -176 -368 -9 -9 -124 -12 -530 -10
l-518 3 64 47 c95 69 265 251 336 358 110 165 189 350 226 530 22 106 40 299
32 343 -21 111 -161 154 -242 73 -35 -35 -36 -39 -54 -216 -12 -127 -28 -201
-67 -305 -150 -406 -499 -697 -932 -779 -108 -21 -314 -21 -422 0 -364 69
-652 272 -847 598 -45 75 -102 216 -126 311 -8 33 -20 112 -26 175 -17 170
-19 177 -46 210 -49 57 -144 64 -204 14 -53 -45 -59 -114 -29 -334 64 -469
382 -909 809 -1121 41 -20 83 -46 93 -57 10 -11 105 -149 211 -308 l194 -288
-98 -147 -99 -147 -44 9 c-338 63 -677 220 -952 440 -44 35 -149 131 -233 213
l-152 149 -27 -24 c-15 -13 -119 -112 -231 -219 -112 -107 -208 -197 -213
-198 -6 -3 -9 366 -6 1000 3 988 3 1005 25 1122 26 141 43 208 83 336 168 534
551 1009 1035 1283 429 243 934 334 1428 257z m2383 -975 c721 -95 1359 -551
1691 -1211 103 -204 178 -427 223 -669 23 -119 23 -130 26 -1122 2 -552 0
-1003 -4 -1003 -4 0 -113 99 -242 220 l-233 220 -159 -155 c-234 -227 -386
-339 -627 -459 -284 -142 -570 -213 -902 -223 -104 -3 -224 -1 -294 6 -421 41
-823 206 -1175 481 -39 30 -71 58 -71 62 0 5 488 9 1085 10 l1085 3 -75 112
c-41 62 -75 116 -75 120 0 5 32 21 70 37 358 146 675 476 819 851 64 166 89
293 98 498 l6 147 -748 0 c-707 0 -747 1 -742 18 2 9 16 55 30 102 13 47 33
130 43 185 9 55 19 102 21 104 1 2 22 -15 45 -39 120 -120 297 -151 446 -78
66 32 148 117 180 185 24 52 27 70 27 163 0 119 -15 165 -80 244 -131 160
-380 186 -528 56 -25 -22 -48 -40 -51 -40 -3 0 -6 24 -6 53 0 156 -47 450
-101 637 -40 134 -109 314 -159 412 -22 42 -40 79 -40 82 0 12 305 5 417 -9z
m903 -2370 c0 -26 -47 -210 -66 -263 -79 -209 -233 -411 -419 -550 -70 -52
-267 -157 -316 -168 -23 -5 -32 5 -107 118 -45 68 -82 128 -82 133 0 6 109
173 242 372 l243 363 253 0 c138 0 252 -2 252 -5z m-3006 -110 c38 -8 84 -24
103 -35 44 -26 51 -25 63 5 7 18 17 25 35 25 l25 0 0 -130 0 -130 -28 0 c-25
0 -30 6 -41 39 -18 62 -92 136 -159 161 -70 26 -190 29 -246 6 -122 -51 -184
-167 -193 -362 -12 -234 48 -383 181 -452 43 -22 64 -26 131 -26 90 0 142 14
185 51 l30 25 0 124 0 124 -80 0 c-79 0 -80 0 -80 25 l0 25 195 0 195 0 0 -24
c0 -21 -5 -25 -37 -28 l-38 -3 -3 -125 c-3 -141 -5 -146 -85 -187 -116 -59
-299 -80 -421 -48 -251 65 -396 284 -359 539 42 292 315 467 627 401z m1689
-319 c51 -21 105 -73 135 -130 25 -47 27 -60 27 -171 0 -111 -2 -124 -27 -171
-37 -70 -108 -130 -176 -150 -70 -21 -170 -15 -235 14 l-47 21 0 -165 0 -164
55 0 c52 0 55 -1 55 -25 l0 -25 -180 0 -180 0 0 25 c0 23 4 25 45 25 l45 0 0
435 0 435 -50 0 c-47 0 -50 2 -50 25 l0 25 130 0 130 0 0 -30 0 -30 43 30 c23
17 62 34 87 40 56 11 149 5 193 -14z m-893 3 c59 -13 115 -51 137 -91 15 -28
19 -67 23 -250 5 -235 10 -254 53 -226 16 12 28 13 41 6 17 -9 17 -11 -1 -30
-57 -63 -158 -65 -215 -4 l-23 25 -43 -29 c-164 -110 -406 13 -361 183 33 127
202 174 372 102 15 -7 17 1 17 93 0 116 -10 145 -55 167 -38 18 -75 19 -127 4
-42 -11 -44 -15 -24 -38 26 -29 24 -83 -4 -111 -26 -26 -80 -26 -114 1 -33 26
-36 84 -5 123 55 70 204 104 329 75z"/>
<path d="M3483 7210 c-130 -26 -249 -139 -288 -275 -81 -278 190 -552 467
-471 124 36 239 151 269 269 19 77 7 202 -24 264 -83 162 -251 247 -424 213z"/>
<path d="M4765 7093 c-139 -74 -568 -339 -588 -363 -55 -65 -42 -162 29 -216
l37 -29 436 0 436 0 33 23 c88 63 82 199 -10 249 -26 14 -63 18 -171 21 l-138
4 53 37 c66 45 102 109 93 161 -19 104 -122 160 -210 113z"/>
<path d="M6265 4325 c-22 -8 -55 -30 -72 -49 l-33 -36 0 -188 c0 -169 2 -191
18 -205 30 -27 94 -49 145 -50 60 -1 94 22 127 89 23 45 25 60 25 179 0 119
-2 134 -25 179 -42 83 -105 111 -185 81z"/>
<path d="M5409 4025 c-46 -25 -62 -105 -35 -170 27 -63 119 -70 190 -14 23 18
26 27 26 90 0 67 -1 70 -32 89 -39 24 -111 26 -149 5z"/>
</g>
</svg>
